<svg width="178" height="42" viewBox="0 0 178 42" fill="none" xmlns="http://www.w3.org/2000/svg">
<g clip-path="url(#clip0_1_8)">
<path d="M6.68982 9.59289L0.375359 10.9386L6.70129 12.7904C7.09477 12.9083 7.44953 13.1294 7.72865 13.4308C8.00777 13.7322 8.20108 14.1028 8.28853 14.5041L9.86426 22.0722L11.5665 14.6422C11.6663 14.2274 11.8794 13.8486 12.182 13.548C12.4846 13.2474 12.8649 13.0368 13.2803 12.9399L19.6062 11.5022L13.0962 9.67341C12.7076 9.54301 12.3609 9.31113 12.0919 9.00173C11.823 8.69234 11.6416 8.31668 11.5665 7.91365L10.1173 0.621582L8.47257 7.86764C8.37136 8.29552 8.14966 8.68544 7.8337 8.9912C7.51775 9.29697 7.12078 9.50577 6.68982 9.59289Z" fill="#0075FF"/>
<path d="M15.6457 30.1071L9.9904 31.3123L15.656 32.9708C16.0084 33.0764 16.3261 33.2744 16.5761 33.5443C16.8261 33.8143 16.9992 34.1462 17.0775 34.5056L18.4888 41.2837L20.0133 34.6292C20.1027 34.2578 20.2935 33.9185 20.5646 33.6493C20.8356 33.3801 21.1761 33.1915 21.5482 33.1047L27.2137 31.817L21.3833 30.1792C21.0353 30.0624 20.7247 29.8547 20.4839 29.5776C20.243 29.3005 20.0805 28.9641 20.0133 28.6031L18.7154 22.0723L17.2423 28.5619C17.1517 28.9451 16.9531 29.2943 16.6702 29.5682C16.3872 29.842 16.0317 30.029 15.6457 30.1071Z" fill="#0075FF"/>
<path d="M28.4683 14.3663L18.794 16.4281L28.4859 19.2651C29.0887 19.4458 29.6322 19.7846 30.0599 20.2463C30.4875 20.708 30.7837 21.2758 30.9177 21.8907L33.3318 33.4857L35.9398 22.1022C36.0926 21.4668 36.4191 20.8864 36.8828 20.4258C37.3464 19.9653 37.929 19.6427 38.5654 19.4942L48.2572 17.2915L38.2834 14.4897C37.688 14.2899 37.1568 13.9346 36.7447 13.4606C36.3327 12.9866 36.0548 12.4111 35.9398 11.7936L33.7195 0.621582L31.1996 11.7231C31.0446 12.3786 30.7049 12.976 30.2208 13.4445C29.7367 13.913 29.1286 14.2329 28.4683 14.3663Z" fill="#0075FF"/>
<path d="M58 19.9119C58 18.3716 58.3773 16.9491 59.1317 15.6446C59.9018 14.34 60.9392 13.3105 62.2438 12.5561C63.5483 11.7859 64.9707 11.4008 66.5111 11.4008C68.0828 11.4008 69.5367 11.8095 70.8727 12.6268C72.2086 13.4284 73.2381 14.4972 73.9611 15.8332L71.2499 17.2713C70.7784 16.4383 70.1182 15.7703 69.2695 15.2673C68.4207 14.7487 67.5013 14.4893 66.5111 14.4893C65.5366 14.4893 64.625 14.733 63.7762 15.2202C62.9432 15.7074 62.283 16.3676 61.7958 17.2006C61.3086 18.0336 61.0649 18.9374 61.0649 19.9119C61.0649 20.8864 61.3086 21.7901 61.7958 22.6231C62.283 23.4562 62.9432 24.1163 63.7762 24.6035C64.625 25.0908 65.5366 25.3344 66.5111 25.3344C67.5327 25.3344 68.46 25.0751 69.2931 24.5564C70.1418 24.0377 70.8019 23.3461 71.2735 22.4817L73.9847 23.967C73.2617 25.3187 72.2322 26.4032 70.8962 27.2205C69.5602 28.0221 68.0985 28.4229 66.5111 28.4229C64.9707 28.4229 63.5483 28.0457 62.2438 27.2912C60.9392 26.5211 59.9018 25.4837 59.1317 24.1792C58.3773 22.8746 58 21.4522 58 19.9119ZM79.1496 24.7921C79.1496 25.0436 79.2124 25.2244 79.3382 25.3344C79.4639 25.4444 79.6604 25.4994 79.9276 25.4994C80.1319 25.4994 80.3755 25.4759 80.6585 25.4287V28.1164C80.0769 28.2107 79.5347 28.2579 79.0317 28.2579C78.1201 28.2579 77.4207 28.0221 76.9334 27.5506C76.4619 27.0633 76.2261 26.2067 76.2261 24.9808V11.613H79.1496V24.7921ZM87.8448 16.0218C88.9765 16.0218 89.9902 16.3047 90.8861 16.8705C91.7977 17.4206 92.505 18.1672 93.008 19.1103C93.5109 20.0533 93.7624 21.0985 93.7624 22.2459C93.7624 22.6231 93.731 22.9689 93.6681 23.2833H84.5677C84.8035 24.1163 85.22 24.7686 85.8172 25.2401C86.4145 25.6959 87.1768 25.9238 88.1041 25.9238C88.67 25.9238 89.2122 25.7981 89.7309 25.5466C90.2653 25.2951 90.6661 24.9729 90.9333 24.58L93.173 25.9002C92.6229 26.7175 91.9078 27.3462 91.0276 27.7863C90.1631 28.2107 89.1651 28.4229 88.0334 28.4229C86.776 28.4229 85.6601 28.1557 84.6856 27.6213C83.7111 27.0869 82.9566 26.3482 82.4223 25.4051C81.9036 24.4621 81.6442 23.4012 81.6442 22.2223C81.6442 21.0592 81.9036 20.0062 82.4223 19.0631C82.9566 18.1201 83.6954 17.3814 84.6384 16.847C85.5815 16.2968 86.6503 16.0218 87.8448 16.0218ZM91.0276 20.9964C90.9018 20.2419 90.5482 19.6525 89.9667 19.2282C89.4008 18.7881 88.6857 18.568 87.8212 18.568C87.224 18.568 86.6738 18.678 86.1709 18.8981C85.6836 19.1181 85.2907 19.4168 84.9921 19.794C84.6934 20.1712 84.5363 20.572 84.5205 20.9964H91.0276ZM104.854 16.3283H107.777V28.1164H104.854V26.9612C104.304 27.4327 103.698 27.8021 103.038 28.0692C102.394 28.3207 101.71 28.4465 100.987 28.4465C99.7929 28.4465 98.7477 28.1793 97.8518 27.6449C96.9559 27.1105 96.2643 26.3718 95.7771 25.4287C95.3056 24.4857 95.0698 23.4247 95.0698 22.2459C95.0698 21.0671 95.3056 20.0062 95.7771 19.0631C96.2643 18.1201 96.9559 17.3814 97.8518 16.847C98.7477 16.2968 99.7929 16.0218 100.987 16.0218C101.71 16.0218 102.394 16.1554 103.038 16.4226C103.698 16.6741 104.304 17.0356 104.854 17.5071V16.3283ZM101.365 25.6409C102.009 25.6409 102.59 25.4994 103.109 25.2165C103.643 24.9179 104.06 24.5092 104.358 23.9906C104.673 23.4719 104.83 22.8825 104.83 22.2223C104.83 21.2321 104.492 20.4227 103.816 19.794C103.156 19.1653 102.34 18.8509 101.365 18.8509C100.375 18.8509 99.5572 19.1731 98.9127 19.8176C98.284 20.4463 97.9697 21.2557 97.9697 22.2459C97.9697 23.2361 98.284 24.0534 98.9127 24.6978C99.5572 25.3265 100.375 25.6409 101.365 25.6409ZM116.773 16.0218C117.465 16.0218 118.164 16.1711 118.871 16.4697C119.594 16.7527 120.208 17.2713 120.711 18.0258C121.229 18.7802 121.489 19.794 121.489 21.0671V28.1164H118.564V21.0671C118.564 20.1869 118.313 19.5582 117.811 19.181C117.324 18.7881 116.75 18.5916 116.09 18.5916C115.43 18.5916 114.864 18.8274 114.392 19.2989C113.937 19.7547 113.708 20.4934 113.708 21.5151V28.1164H110.785V16.3283H113.708V17.3185C114.132 16.9255 114.604 16.6112 115.122 16.3754C115.641 16.1397 116.191 16.0218 116.773 16.0218ZM125.325 14.3715C124.774 14.3715 124.343 14.2221 124.029 13.9235C123.714 13.6249 123.557 13.2162 123.557 12.6975C123.557 12.1631 123.714 11.7466 124.029 11.448C124.343 11.1494 124.774 11 125.325 11C125.876 11 126.307 11.1494 126.621 11.448C126.936 11.7466 127.093 12.1631 127.093 12.6975C127.093 13.2005 126.929 13.6092 126.599 13.9235C126.284 14.2221 125.86 14.3715 125.325 14.3715ZM123.84 28.1164V16.3283H126.763V28.1164H123.84ZM135.675 16.0218C136.368 16.0218 137.067 16.1711 137.774 16.4697C138.497 16.7527 139.109 17.2713 139.612 18.0258C140.131 18.7802 140.39 19.794 140.39 21.0671V28.1164H137.468V21.0671C137.468 20.1869 137.215 19.5582 136.713 19.181C136.226 18.7881 135.651 18.5916 134.991 18.5916C134.331 18.5916 133.766 18.8274 133.295 19.2989C132.839 19.7547 132.61 20.4934 132.61 21.5151V28.1164H129.687V16.3283H132.61V17.3185C133.035 16.9255 133.507 16.6112 134.026 16.3754C134.544 16.1397 135.093 16.0218 135.675 16.0218ZM151.983 16.3283H154.907V27.527C154.907 28.6429 154.624 29.6253 154.058 30.474C153.508 31.3228 152.738 31.975 151.748 32.4309C150.757 32.9024 149.649 33.1381 148.424 33.1381C147.057 33.1381 145.814 32.8709 144.698 32.3365C143.582 31.8179 142.798 31.1342 142.341 30.2854L144.84 28.8473C145.076 29.3031 145.517 29.6803 146.16 29.9789C146.805 30.2933 147.583 30.4504 148.494 30.4504C149.5 30.4504 150.334 30.1754 150.994 29.6253C151.654 29.0909 151.983 28.3915 151.983 27.527V26.9847C151.45 27.4563 150.853 27.8178 150.192 28.0692C149.532 28.3207 148.849 28.4465 148.142 28.4465C146.947 28.4465 145.902 28.1793 145.006 27.6449C144.109 27.1105 143.418 26.3718 142.931 25.4287C142.46 24.4857 142.224 23.4247 142.224 22.2459C142.224 21.0671 142.46 20.0062 142.931 19.0631C143.418 18.1201 144.109 17.3814 145.006 16.847C145.902 16.2968 146.947 16.0218 148.142 16.0218C148.849 16.0218 149.524 16.1554 150.168 16.4226C150.828 16.6741 151.433 17.0277 151.983 17.4835V16.3283ZM148.519 25.6409C149.162 25.6409 149.745 25.4994 150.263 25.2165C150.798 24.9179 151.214 24.5092 151.513 23.9906C151.827 23.4719 151.983 22.8825 151.983 22.2223C151.983 21.2321 151.646 20.4227 150.97 19.794C150.31 19.1653 149.493 18.8509 148.519 18.8509C147.529 18.8509 146.711 19.1731 146.067 19.8176C145.438 20.4463 145.123 21.2557 145.123 22.2459C145.123 23.2361 145.438 24.0534 146.067 24.6978C146.711 25.3265 147.529 25.6409 148.519 25.6409ZM172.552 19.8411L177.903 28.1164H174.226L170.405 22.1988L166.586 28.1164H162.909L168.261 19.8411L162.931 11.613H166.61L170.405 17.4835L174.201 11.613H177.879L172.552 19.8411Z" fill="#211F54"/>
</g>
<defs>
<clipPath id="clip0_1_8">
<rect width="178" height="42" fill="white"/>
</clipPath>
</defs>
</svg>
